<?xml version="1.0" encoding="UTF-8"?>
<svg id="Layer_1" xmlns="http://www.w3.org/2000/svg" version="1.1" viewBox="0 0 369.7 407.6">
  <!-- Generator: Adobe Illustrator 30.1.0, SVG Export Plug-In . SVG Version: 2.1.1 Build 136)  -->
  <defs>
    <style>
      .st0, .st1 {
        fill: #fff;
      }

      .st1 {
        isolation: isolate;
        opacity: .2;
      }
    </style>
  </defs>
  <polygon class="st0" points="193.41 330.01 108.12 280.75 108.12 358.36 193.41 407.6 366.87 307.45 299.68 268.64 193.41 330.01"/>
  <polygon class="st1" points="193.41 337.87 193.41 399.74 114.94 354.43 114.94 292.56 193.41 337.87"/>
  <polygon class="st0" points="193.41 104.47 108.12 153.71 108.12 231.31 193.41 182.06 300.52 243.9 367.71 282.7 367.71 205.11 300.52 166.31 193.41 104.47"/>
  <polygon class="st1" points="193.41 112.33 193.41 174.2 114.94 219.5 114.94 157.64 193.41 112.33"/>
  <polygon class="st0" points="19.09 100.64 1 111.09 1 188.68 19.09 178.24 19.09 205.11 19.09 282.7 19.09 306.96 86.29 345.75 86.29 280.75 86.29 243.92 86.29 166.32 86.29 152.23 86.29 148.87 86.29 139.44 86.29 139.44 86.29 61.85 19.09 100.64 19.09 100.64"/>
  <polygon class="st1" points="25.91 303.03 25.91 166.43 7.81 176.88 7.81 115.02 79.47 73.65 79.47 333.95 25.91 303.03"/>
  <polygon class="st0" points="193.41 0 108.12 49.24 108.12 126.84 193.41 77.59 300.52 139.43 367.71 178.23 367.71 100.64 193.41 0"/>
  <polygon class="st1" points="193.41 7.86 193.41 69.73 114.94 115.04 114.94 53.17 193.41 7.86"/>
</svg>