<svg width="128" height="128" viewBox="0 0 128 128" fill="none" xmlns="http://www.w3.org/2000/svg">
  <rect x="4" y="4" width="120" height="120" rx="32" fill="#F3BA2F"/>
  <g fill="white">
    <path d="M64 26L79.5 41.5L71.7 49.3L64 41.6L56.3 49.3L48.5 41.5L64 26Z"/>
    <path d="M96 57.9L103.7 65.6L88.2 81.1L80.5 73.4L96 57.9Z"/>
    <path d="M32 57.9L47.5 73.4L39.8 81.1L24.3 65.6L32 57.9Z"/>
    <path d="M64 54.2L78.3 68.5L70.6 76.2L64 69.6L57.4 76.2L49.7 68.5L64 54.2Z"/>
    <path d="M64 86.1L79.5 101.6L71.8 109.3L64 101.5L56.2 109.3L48.5 101.6L64 86.1Z"/>
  </g>
</svg>
