<?xml version="1.0" standalone="no"?>
<!DOCTYPE svg PUBLIC "-//W3C//DTD SVG 20010904//EN"
 "http://www.w3.org/TR/2001/REC-SVG-20010904/DTD/svg10.dtd">
<svg version="1.0" xmlns="http://www.w3.org/2000/svg"
 width="2400.000000pt" height="1260.000000pt" viewBox="0 0 2400.000000 1260.000000"
 preserveAspectRatio="xMidYMid meet">
<metadata>
Created by potrace 1.16, written by Peter Selinger 2001-2019
</metadata>
<g transform="translate(0.000000,1260.000000) scale(0.100000,-0.100000)"
fill="#000000" stroke="none">
<path d="M13304 7008 c3 -50 6 -390 6 -755 l0 -663 515 0 c449 0 516 2 521 15
4 10 20 15 45 15 28 0 39 -4 39 -15 0 -11 12 -15 44 -15 30 0 46 5 50 15 3 10
19 15 46 15 29 0 40 -4 40 -15 0 -11 12 -15 44 -15 30 0 46 5 50 15 3 8 15 15
26 15 11 0 20 -7 20 -15 0 -11 12 -15 45 -15 33 0 45 4 45 15 0 8 9 15 20 15
11 0 20 -7 20 -15 0 -8 5 -15 10 -15 7 0 10 258 10 755 l0 755 -801 0 -802 0
7 -92z m970 -427 c134 -222 145 -243 119 -235 -15 5 -71 9 -123 8 -89 0 -102
-3 -200 -44 -94 -39 -114 -44 -187 -44 -52 -1 -86 3 -94 11 -10 10 5 41 71
150 205 339 253 414 260 406 4 -4 73 -118 154 -252z m113 -347 c23 -8 46 -21
52 -27 7 -10 -34 -75 -154 -246 -90 -129 -166 -235 -168 -237 -2 -2 -51 62
-108 143 -57 81 -130 183 -161 227 -31 44 -56 82 -54 83 2 2 15 -1 30 -7 61
-23 151 -9 291 44 118 45 186 50 272 20z m-317 -534 c0 -5 -4 -10 -10 -10 -5
0 -10 5 -10 10 0 6 5 10 10 10 6 0 10 -4 10 -10z"/>
<path d="M6230 6475 c-14 -17 -5 -51 16 -59 22 -8 54 11 54 32 0 38 -46 56
-70 27z"/>
<path d="M10180 6475 c-14 -17 -5 -51 16 -59 22 -8 54 11 54 32 0 38 -46 56
-70 27z"/>
<path d="M5930 6285 l0 -185 40 0 40 0 0 70 0 70 75 0 75 0 0 30 0 30 -75 0
-75 0 0 55 0 55 80 0 80 0 0 30 0 30 -120 0 -120 0 0 -185z"/>
<path d="M7132 6458 c2 -7 29 -91 61 -186 l59 -173 51 3 50 3 59 175 c32 96
58 178 58 182 0 5 -17 8 -38 8 l-39 0 -36 -117 c-20 -65 -40 -134 -45 -153
l-9 -35 -12 45 c-7 25 -28 93 -47 153 l-36 107 -40 0 c-27 0 -38 -4 -36 -12z"/>
<path d="M9270 6447 c-110 -73 -103 -274 12 -333 38 -20 117 -20 156 0 33 17
68 60 74 91 2 16 -3 21 -33 23 -30 3 -37 -1 -47 -23 -25 -55 -109 -56 -143 -2
-23 38 -25 116 -4 156 29 58 113 64 144 10 12 -23 23 -29 49 -29 27 0 32 4 32
24 0 29 -33 72 -70 91 -45 23 -131 19 -170 -8z"/>
<path d="M10790 6301 c0 -164 1 -170 22 -185 12 -9 37 -16 55 -16 30 0 33 3
33 29 0 20 -6 30 -20 34 -19 5 -20 14 -20 156 l0 151 -35 0 -35 0 0 -169z"/>
<path d="M15230 6285 l0 -185 94 0 c51 0 107 5 124 11 38 13 62 48 62 91 -1
37 -14 59 -47 76 l-22 12 30 29 c31 32 36 55 18 95 -19 40 -66 56 -168 56
l-91 0 0 -185z m171 115 c23 -13 25 -53 3 -74 -9 -9 -32 -16 -55 -16 l-39 0 0
50 0 50 36 0 c19 0 44 -5 55 -10z m10 -150 c12 -7 19 -21 19 -40 0 -36 -23
-50 -79 -50 l-41 0 0 50 0 50 41 0 c22 0 49 -5 60 -10z"/>
<path d="M6860 6410 c0 -23 -4 -30 -20 -30 -16 0 -20 -7 -20 -30 0 -23 4 -30
20 -30 19 0 20 -7 20 -93 0 -111 10 -127 82 -127 44 0 44 0 40 30 -2 17 -9 30
-16 29 -33 -4 -36 2 -36 81 0 79 0 80 25 80 21 0 25 5 25 30 0 25 -4 30 -25
30 -21 0 -25 5 -25 30 0 28 -3 30 -35 30 -32 0 -35 -2 -35 -30z"/>
<path d="M8110 6410 c0 -23 -4 -30 -20 -30 -16 0 -20 -7 -20 -30 0 -23 4 -30
20 -30 19 0 20 -7 20 -90 0 -116 19 -139 105 -130 27 3 27 3 19 34 -3 14 -10
23 -16 20 -24 -15 -38 20 -38 92 0 72 1 74 25 74 21 0 25 5 25 30 0 25 -4 30
-25 30 -21 0 -25 5 -25 30 0 28 -3 30 -35 30 -32 0 -35 -2 -35 -30z"/>
<path d="M10320 6410 c0 -23 -4 -30 -20 -30 -15 0 -20 -7 -20 -26 0 -17 6 -28
20 -31 18 -5 20 -14 20 -84 0 -94 13 -127 54 -137 51 -13 78 -4 74 27 -2 14
-9 27 -15 27 -7 1 -17 2 -23 3 -6 0 -10 35 -10 80 0 75 1 80 23 83 16 2 23 11
25 31 3 23 0 27 -22 27 -22 0 -26 4 -26 30 0 28 -2 30 -40 30 -38 0 -40 -2
-40 -30z"/>
<path d="M6220 6240 l0 -140 40 0 40 0 0 140 0 140 -40 0 -40 0 0 -140z"/>
<path d="M6360 6240 l0 -140 35 0 35 0 0 83 c0 97 14 127 61 127 27 0 29 3 29
35 0 29 -4 35 -22 35 -12 0 -32 -10 -45 -22 l-23 -21 0 21 c0 18 -6 22 -35 22
l-35 0 0 -140z"/>
<path d="M6620 6373 c-34 -12 -60 -47 -60 -79 0 -40 36 -71 91 -80 21 -4 46
-12 56 -19 15 -11 15 -15 4 -29 -18 -22 -56 -20 -78 3 -13 13 -27 17 -50 14
-41 -6 -41 -16 -4 -54 29 -28 55 -35 121 -29 34 3 76 26 84 45 23 62 -11 108
-88 119 -56 9 -79 32 -51 52 24 18 36 18 61 -1 22 -17 74 -20 74 -4 0 49 -94
86 -160 62z"/>
<path d="M7555 6370 c-43 -17 -68 -58 -73 -115 -9 -113 40 -161 160 -156 16 1
42 14 60 31 28 25 31 31 18 40 -22 14 -56 12 -70 -5 -26 -32 -100 -2 -100 40
0 12 17 15 96 15 l96 0 -7 43 c-10 56 -20 74 -58 97 -33 21 -87 25 -122 10z
m93 -62 c26 -26 13 -38 -43 -38 -59 0 -64 4 -38 32 18 20 63 24 81 6z"/>
<path d="M7790 6240 l0 -140 35 0 35 0 0 94 c0 87 2 96 22 110 28 20 43 20 62
0 12 -12 16 -37 16 -110 l0 -94 41 0 42 0 -5 108 c-6 124 -10 138 -49 157 -39
21 -72 19 -103 -6 l-26 -20 0 20 c0 17 -6 21 -35 21 l-35 0 0 -140z"/>
<path d="M8280 6275 c0 -147 20 -179 105 -177 19 0 38 10 53 27 l22 26 0 -25
c0 -23 4 -26 35 -26 l35 0 0 140 0 140 -35 0 -35 0 0 -82 c0 -96 -14 -132 -52
-136 -43 -5 -58 28 -58 130 l0 88 -35 0 -35 0 0 -105z"/>
<path d="M8590 6240 l0 -140 40 0 40 0 0 94 c0 102 5 112 55 118 26 3 30 8 33
36 3 28 0 32 -21 32 -13 0 -36 -9 -51 -21 l-26 -20 0 20 c0 17 -6 21 -35 21
l-35 0 0 -140z"/>
<path d="M8834 6361 c-81 -51 -81 -193 1 -247 48 -31 162 -11 179 32 14 37
-23 45 -73 17 -28 -16 -33 -17 -58 -3 -16 9 -29 26 -31 38 -3 21 -1 22 89 22
l92 0 -6 46 c-7 65 -48 105 -114 111 -36 3 -56 -1 -79 -16z m116 -60 c15 -30
14 -31 -45 -31 -38 0 -55 4 -55 13 0 39 81 53 100 18z"/>
<path d="M9630 6373 c-23 -8 -60 -45 -60 -59 0 -18 58 -23 72 -7 18 22 72 12
76 -13 3 -19 -4 -23 -60 -33 -83 -14 -103 -36 -99 -108 1 -29 42 -55 86 -55
20 0 47 7 60 16 22 14 25 15 25 1 0 -11 10 -15 35 -15 l35 0 0 100 c0 117 -13
152 -61 169 -33 11 -83 13 -109 4z m90 -177 c0 -31 -22 -48 -57 -44 -37 4 -45
44 -11 57 44 18 68 13 68 -13z"/>
<path d="M9860 6190 l0 -190 35 0 35 0 0 72 0 71 24 -22 c43 -41 116 -27 149
29 21 36 22 131 2 170 -33 63 -106 80 -150 35 l-25 -24 0 24 c0 22 -5 25 -35
25 l-35 0 0 -190z m164 114 c21 -21 30 -58 21 -91 -10 -40 -24 -53 -55 -53
-31 0 -45 13 -55 53 -13 51 15 107 55 107 10 0 26 -7 34 -16z"/>
<path d="M10170 6240 l0 -140 40 0 40 0 0 140 0 140 -40 0 -40 0 0 -140z"/>
<path d="M10543 6366 c-27 -12 -61 -52 -51 -60 2 -2 17 -6 35 -9 22 -4 33 -2
37 8 8 21 75 20 83 -1 9 -23 -8 -34 -67 -43 -89 -14 -126 -79 -77 -136 27 -33
96 -38 127 -10 18 16 20 17 20 2 0 -13 9 -17 35 -17 l35 0 0 113 c0 108 -1
115 -25 137 -30 29 -106 37 -152 16z m107 -160 c0 -48 -61 -75 -90 -40 -17 20
4 43 51 54 19 4 35 8 37 9 1 1 2 -10 2 -23z"/>
<path d="M15599 6357 c-45 -30 -49 -53 -9 -59 18 -3 35 1 41 9 15 17 64 17 79
-2 18 -22 5 -33 -48 -41 -56 -8 -97 -27 -106 -49 -12 -32 -6 -75 14 -95 25
-25 95 -27 128 -4 20 14 22 14 22 0 0 -12 10 -16 35 -16 l35 0 0 106 c0 58 -5
114 -10 125 -27 50 -124 64 -181 26z m121 -150 c0 -7 -7 -23 -16 -35 -22 -32
-77 -28 -82 6 -2 16 3 25 20 31 34 14 78 13 78 -2z"/>
<path d="M15910 6373 c-34 -12 -60 -47 -60 -79 0 -40 36 -71 91 -80 21 -4 46
-12 56 -19 15 -11 15 -15 4 -29 -18 -21 -57 -20 -79 2 -13 13 -29 18 -50 14
-38 -5 -39 -12 -9 -47 61 -72 217 -35 217 50 0 41 -22 60 -85 76 -75 18 -94
38 -55 59 16 9 28 7 52 -4 36 -18 78 -21 78 -5 0 49 -94 86 -160 62z"/>
<path d="M16182 6360 c-80 -49 -81 -184 -1 -243 32 -23 105 -25 147 -3 30 16
46 41 36 57 -8 14 -54 10 -70 -6 -31 -31 -80 -12 -97 38 -6 15 2 17 88 17 l95
0 0 34 c0 39 -35 95 -70 113 -37 19 -91 16 -128 -7z m110 -57 c29 -26 21 -33
-37 -33 -38 0 -55 4 -55 13 0 36 59 50 92 20z"/>
<path d="M5550 6044 c0 -15 6 -16 35 -5 17 7 17 8 -8 13 -19 4 -27 1 -27 -8z"/>
<path d="M5547 5983 c-4 -3 -7 -16 -7 -28 0 -13 -10 -27 -25 -35 -14 -7 -25
-18 -25 -23 0 -12 -42 -46 -57 -47 -7 0 -13 -6 -13 -14 0 -7 -9 -20 -21 -27
-18 -12 -19 -18 -10 -43 10 -26 8 -31 -29 -67 -43 -42 -53 -47 -44 -24 9 22
-14 18 -26 -5 -6 -11 -19 -20 -30 -20 -10 0 -22 -4 -25 -10 -9 -14 48 -13 63
2 9 9 12 9 12 0 0 -15 146 -17 155 -2 3 6 15 10 27 10 26 0 88 62 88 89 0 12
5 21 11 21 7 0 10 39 8 115 -2 111 -3 115 -24 115 -12 0 -25 -3 -28 -7z"/>
<path d="M13315 5570 c-3 -5 3 -10 14 -10 12 0 21 5 21 10 0 6 -6 10 -14 10
-8 0 -18 -4 -21 -10z"/>
<path d="M13440 5570 c0 -5 9 -10 20 -10 11 0 20 5 20 10 0 6 -9 10 -20 10
-11 0 -20 -4 -20 -10z"/>
</g>
</svg>
